<?xml version="1.0" standalone="no"?>
<!DOCTYPE svg PUBLIC "-//W3C//DTD SVG 20010904//EN"
 "http://www.w3.org/TR/2001/REC-SVG-20010904/DTD/svg10.dtd">
<svg version="1.0" xmlns="http://www.w3.org/2000/svg"
 width="512.000000pt" height="512.000000pt" viewBox="0 0 512.000000 512.000000"
 preserveAspectRatio="xMidYMid meet">

<g transform="translate(0.000000,512.000000) scale(0.100000,-0.100000)"
fill="#ffffff" stroke="none">
<path d="M1460 4355 l-1075 -745 -81 0 c-67 0 -86 -4 -108 -21 l-26 -20 0
-200 c0 -256 -13 -239 185 -239 l145 0 0 -145 c0 -177 4 -185 100 -185 l60 0
0 -820 0 -820 -40 0 c-56 0 -108 -23 -115 -52 -3 -13 -6 -81 -8 -153 l-2 -130
-147 -5 c-101 -3 -151 -9 -160 -18 -9 -9 -15 -59 -18 -160 l-5 -147 -62 -3
c-53 -3 -65 -7 -83 -29 -18 -24 -20 -40 -20 -215 0 -187 0 -189 25 -213 l24
-25 2511 0 2511 0 24 25 c25 24 25 26 25 213 0 175 -2 191 -20 215 -18 22 -30
26 -83 29 l-62 3 -5 147 c-3 101 -9 151 -18 160 -9 9 -59 15 -160 18 l-147 5
-2 130 c-2 72 -5 140 -8 153 -7 29 -59 52 -115 52 l-40 0 0 820 0 820 60 0
c96 0 100 8 100 185 l0 145 145 0 c198 0 185 -17 185 238 0 243 5 234 -134
242 l-91 5 -1065 740 c-719 498 -1075 740 -1095 742 -26 3 -182 -102 -1105
-742z m2066 -90 l947 -655 -1287 0 -1287 0 -24 -25 c-32 -31 -32 -69 0 -100
l24 -25 1451 0 1450 0 0 -90 0 -90 -2240 0 -2240 0 0 90 0 90 665 0 666 0 24
25 c30 29 32 64 6 96 l-19 24 -503 5 -504 5 950 658 c523 361 955 655 962 653
7 -3 438 -300 959 -661z m-2198 -1227 l3 -88 -341 0 -340 0 0 90 0 90 338 -2
337 -3 3 -87z m742 -47 c0 -124 2 -141 20 -164 18 -22 30 -26 83 -29 l62 -3 3
-816 2 -816 -62 -6 c-51 -5 -67 -10 -85 -32 -22 -24 -23 -35 -23 -166 l0 -139
-294 0 -294 0 -4 145 c-4 175 -9 183 -107 192 l-61 6 0 818 0 819 59 0 c43 0
65 5 82 19 23 18 24 26 27 165 l4 146 294 0 294 0 0 -139z m830 49 l0 -90
-340 0 -340 0 0 90 0 90 340 0 340 0 0 -90z m742 -56 c3 -139 4 -147 27 -165
17 -14 39 -19 82 -19 l59 0 0 -819 0 -818 -61 -6 c-98 -9 -103 -17 -107 -192
l-4 -145 -294 0 -294 0 0 139 c0 131 -1 142 -23 166 -18 22 -34 27 -85 32
l-62 6 2 816 3 816 62 3 c53 3 65 7 83 29 18 23 20 40 20 164 l0 139 294 0
294 0 4 -146z m828 56 l0 -90 -340 0 -340 0 0 83 c0 46 3 87 7 90 3 4 156 7
340 7 l333 0 0 -90z m-3310 -1060 l0 -820 -175 0 -175 0 0 813 c0 448 3 817 7
820 3 4 82 7 175 7 l168 0 0 -820z m1570 0 l0 -820 -170 0 -170 0 0 820 0 820
170 0 170 0 0 -820z m1578 -2 l2 -818 -175 0 -175 0 0 820 0 820 173 -2 172
-3 3 -817z m-2983 -1063 l0 -90 -337 -3 -338 -2 0 95 0 95 338 -2 337 -3 0
-90z m1573 -2 l3 -93 -341 0 -340 0 0 88 c0 49 3 92 7 95 4 4 155 6 337 5
l331 -3 3 -92z m1572 2 l0 -95 -337 2 -338 3 -3 79 c-2 44 -1 85 2 93 4 10 70
13 341 13 l335 0 0 -95z m330 -335 l0 -90 -2240 0 -2240 0 0 90 0 90 2240 0
2240 0 0 -90z m170 -330 l0 -90 -2410 0 -2410 0 0 90 0 90 2410 0 2410 0 0
-90z"/>
<path d="M2465 4251 c-80 -36 -132 -107 -142 -191 -9 -78 12 -137 71 -195 52
-52 103 -75 166 -75 97 0 204 81 229 173 44 156 -69 307 -229 307 -32 0 -72
-8 -95 -19z m156 -160 c20 -20 29 -39 29 -61 0 -22 -9 -41 -29 -61 -20 -20
-39 -29 -61 -29 -43 0 -90 47 -90 90 0 43 47 90 90 90 22 0 41 -9 61 -29z"/>
</g>
</svg>
