<?xml version="1.0" standalone="no"?>
<!DOCTYPE svg PUBLIC "-//W3C//DTD SVG 20010904//EN"
 "http://www.w3.org/TR/2001/REC-SVG-20010904/DTD/svg10.dtd">
<svg version="1.0" xmlns="http://www.w3.org/2000/svg"
 width="512.000000pt" height="512.000000pt" viewBox="0 0 512.000000 512.000000"
 preserveAspectRatio="xMidYMid meet">

<g transform="translate(0.000000,512.000000) scale(0.100000,-0.100000)"
fill="#ffffff" stroke="none">
<path d="M1133 4795 c-197 -43 -367 -206 -418 -402 -22 -84 -22 -3610 -1
-3692 52 -191 218 -345 410 -380 41 -8 560 -11 1656 -11 1593 0 1596 0 1618
20 21 20 27 37 22 70 -1 8 -24 48 -52 88 -119 174 -155 314 -117 457 15 55 73
168 125 243 l44 64 0 1756 0 1757 -25 23 -26 22 -1587 -1 c-1297 0 -1598 -3
-1649 -14z m65 -1792 l-3 -1657 -65 -12 c-82 -15 -169 -54 -237 -105 l-53 -40
2 1584 3 1583 38 76 c25 51 54 91 87 121 61 55 159 103 213 106 16 1 17 -82
15 -1656z m3082 2 l0 -1655 -1470 0 -1470 0 0 1655 0 1655 1470 0 1470 0 0
-1655z m-70 -1800 c0 -3 -17 -38 -37 -77 -21 -40 -47 -107 -59 -148 l-22 -75
-1621 -3 c-1465 -2 -1621 -1 -1621 14 0 33 53 125 97 169 26 25 70 57 98 70
112 55 60 53 1673 54 820 1 1492 -1 1492 -4z m-102 -503 c7 -32 31 -96 54
-142 23 -47 44 -88 46 -93 2 -4 -693 -6 -1545 -5 l-1548 3 -57 27 c-96 45
-180 145 -203 241 l-7 27 1624 0 1624 0 12 -58z"/>
<path d="M2762 4207 c-21 -22 -22 -31 -22 -240 l0 -217 -378 0 c-348 0 -380
-1 -394 -17 -8 -10 -97 -224 -198 -476 l-183 -458 5 -108 c4 -93 8 -116 35
-173 82 -175 266 -278 445 -250 231 35 378 215 378 460 0 64 -9 89 -160 467
-88 220 -160 403 -160 407 0 5 137 8 305 8 l305 0 0 -840 0 -840 -219 0 c-206
0 -220 -1 -245 -21 -33 -26 -36 -77 -5 -105 20 -18 46 -19 527 -22 355 -2 515
1 533 9 57 23 58 103 2 128 -15 7 -103 11 -238 11 l-215 0 0 840 0 840 309 0
309 0 -164 -410 c-181 -452 -180 -448 -149 -593 47 -223 267 -377 485 -338 93
17 161 51 229 116 88 84 121 159 131 296 l8 108 -185 463 c-101 255 -192 471
-200 481 -15 16 -47 17 -395 17 l-378 0 0 220 c0 207 -1 221 -20 240 -27 27
-71 26 -98 -3z m-614 -1042 l120 -300 -246 -3 c-135 -1 -246 -1 -248 1 -2 2
51 141 119 309 67 169 125 304 129 300 3 -4 60 -142 126 -307z m1582 9 c66
-164 120 -302 120 -306 0 -4 -110 -8 -245 -8 -135 0 -245 3 -245 8 0 14 242
613 247 609 2 -3 58 -139 123 -303z m-1425 -501 c-18 -103 -55 -168 -122 -212
-64 -43 -105 -54 -181 -49 -143 8 -249 106 -268 247 l-7 51 292 0 292 0 -6
-37z m1585 4 c0 -86 -62 -184 -147 -234 -34 -20 -63 -27 -119 -31 -92 -6 -149
14 -212 72 -55 50 -82 103 -89 172 l-6 54 287 0 286 0 0 -33z"/>
</g>
</svg>
